
Input File     : 'unpacked/sample-01-1.wav'
Channels       : 1
Sample Rate    : 32000
Precision      : 16-bit
Duration       : 00:00:00.17 = 5351 samples ~ 12.5414 CDDA sectors
File Size      : 10.7k
Bit Rate       : 514k
Sample Encoding: 16-bit Signed Integer PCM


Input File     : 'unpacked/sample-01-2.wav'
Channels       : 1
Sample Rate    : 32000
Precision      : 16-bit
Duration       : 00:00:00.30 = 9600 samples ~ 22.5 CDDA sectors
File Size      : 19.2k
Bit Rate       : 513k
Sample Encoding: 16-bit Signed Integer PCM


Input File     : 'unpacked/sample-01-3.wav'
Channels       : 1
Sample Rate    : 32000
Precision      : 16-bit
Duration       : 00:00:00.10 = 3200 samples ~ 7.5 CDDA sectors
File Size      : 6.44k
Bit Rate       : 516k
Sample Encoding: 16-bit Signed Integer PCM


Input File     : 'unpacked/sample-01-4.wav'
Channels       : 1
Sample Rate    : 32000
Precision      : 16-bit
Duration       : 00:00:00.21 = 6735 samples ~ 15.7852 CDDA sectors
File Size      : 13.5k
Bit Rate       : 514k
Sample Encoding: 16-bit Signed Integer PCM


Input File     : 'unpacked/sample-01-5.wav'
Channels       : 1
Sample Rate    : 32000
Precision      : 16-bit
Duration       : 00:00:00.32 = 10174 samples ~ 23.8453 CDDA sectors
File Size      : 20.4k
Bit Rate       : 513k
Sample Encoding: 16-bit Signed Integer PCM


Input File     : 'unpacked/sample-02-1.wav'
Channels       : 1
Sample Rate    : 32000
Precision      : 16-bit
Duration       : 00:00:00.25 = 8114 samples ~ 19.0172 CDDA sectors
File Size      : 16.3k
Bit Rate       : 513k
Sample Encoding: 16-bit Signed Integer PCM


Input File     : 'unpacked/sample-02-2.wav'
Channels       : 1
Sample Rate    : 32000
Precision      : 16-bit
Duration       : 00:00:00.44 = 14221 samples ~ 33.3305 CDDA sectors
File Size      : 28.5k
Bit Rate       : 513k
Sample Encoding: 16-bit Signed Integer PCM


Input File     : 'unpacked/sample-02-3.wav'
Channels       : 1
Sample Rate    : 32000
Precision      : 16-bit
Duration       : 00:00:00.20 = 6400 samples ~ 15 CDDA sectors
File Size      : 12.8k
Bit Rate       : 514k
Sample Encoding: 16-bit Signed Integer PCM


Input File     : 'unpacked/sample-02-4.wav'
Channels       : 1
Sample Rate    : 32000
Precision      : 16-bit
Duration       : 00:00:00.22 = 6934 samples ~ 16.2516 CDDA sectors
File Size      : 13.9k
Bit Rate       : 514k
Sample Encoding: 16-bit Signed Integer PCM


Input File     : 'unpacked/sample-02-5.wav'
Channels       : 1
Sample Rate    : 32000
Precision      : 16-bit
Duration       : 00:00:00.29 = 9207 samples ~ 21.5789 CDDA sectors
File Size      : 18.5k
Bit Rate       : 513k
Sample Encoding: 16-bit Signed Integer PCM


Input File     : 'unpacked/sample-03-1.wav'
Channels       : 1
Sample Rate    : 32000
Precision      : 16-bit
Duration       : 00:00:00.02 = 541 samples ~ 1.26797 CDDA sectors
File Size      : 1.13k
Bit Rate       : 533k
Sample Encoding: 16-bit Signed Integer PCM


Input File     : 'unpacked/sample-03-2.wav'
Channels       : 1
Sample Rate    : 32000
Precision      : 16-bit
Duration       : 00:00:00.04 = 1280 samples ~ 3 CDDA sectors
File Size      : 2.60k
Bit Rate       : 521k
Sample Encoding: 16-bit Signed Integer PCM


Input File     : 'unpacked/sample-03-3.wav'
Channels       : 1
Sample Rate    : 32000
Precision      : 16-bit
Duration       : 00:00:00.08 = 2539 samples ~ 5.95078 CDDA sectors
File Size      : 5.12k
Bit Rate       : 516k
Sample Encoding: 16-bit Signed Integer PCM


Input File     : 'unpacked/sample-03-4.wav'
Channels       : 1
Sample Rate    : 32000
Precision      : 16-bit
Duration       : 00:00:00.05 = 1641 samples ~ 3.84609 CDDA sectors
File Size      : 3.33k
Bit Rate       : 519k
Sample Encoding: 16-bit Signed Integer PCM


Input File     : 'unpacked/sample-03-5.wav'
Channels       : 1
Sample Rate    : 32000
Precision      : 16-bit
Duration       : 00:00:00.09 = 2958 samples ~ 6.93281 CDDA sectors
File Size      : 5.96k
Bit Rate       : 516k
Sample Encoding: 16-bit Signed Integer PCM


Input File     : 'unpacked/sample-04-1.wav'
Channels       : 1
Sample Rate    : 32000
Precision      : 16-bit
Duration       : 00:00:00.14 = 4635 samples ~ 10.8633 CDDA sectors
File Size      : 9.31k
Bit Rate       : 514k
Sample Encoding: 16-bit Signed Integer PCM


Input File     : 'unpacked/sample-04-2.wav'
Channels       : 1
Sample Rate    : 32000
Precision      : 16-bit
Duration       : 00:00:00.14 = 4480 samples ~ 10.5 CDDA sectors
File Size      : 9.00k
Bit Rate       : 515k
Sample Encoding: 16-bit Signed Integer PCM


Input File     : 'unpacked/sample-04-3.wav'
Channels       : 1
Sample Rate    : 32000
Precision      : 16-bit
Duration       : 00:00:00.10 = 3200 samples ~ 7.5 CDDA sectors
File Size      : 6.44k
Bit Rate       : 516k
Sample Encoding: 16-bit Signed Integer PCM


Input File     : 'unpacked/sample-04-4.wav'
Channels       : 1
Sample Rate    : 32000
Precision      : 16-bit
Duration       : 00:00:00.10 = 3311 samples ~ 7.76016 CDDA sectors
File Size      : 6.67k
Bit Rate       : 515k
Sample Encoding: 16-bit Signed Integer PCM


Input File     : 'unpacked/sample-04-5.wav'
Channels       : 1
Sample Rate    : 32000
Precision      : 16-bit
Duration       : 00:00:00.25 = 8135 samples ~ 19.0664 CDDA sectors
File Size      : 16.3k
Bit Rate       : 513k
Sample Encoding: 16-bit Signed Integer PCM


Input File     : 'unpacked/sample-05-1.wav'
Channels       : 1
Sample Rate    : 32000
Precision      : 16-bit
Duration       : 00:00:00.45 = 14282 samples ~ 33.4734 CDDA sectors
File Size      : 28.6k
Bit Rate       : 513k
Sample Encoding: 16-bit Signed Integer PCM


Input File     : 'unpacked/sample-05-2.wav'
Channels       : 1
Sample Rate    : 32000
Precision      : 16-bit
Duration       : 00:00:00.53 = 16834 samples ~ 39.4547 CDDA sectors
File Size      : 33.7k
Bit Rate       : 513k
Sample Encoding: 16-bit Signed Integer PCM


Input File     : 'unpacked/sample-05-3.wav'
Channels       : 1
Sample Rate    : 32000
Precision      : 16-bit
Duration       : 00:00:00.70 = 22400 samples ~ 52.5 CDDA sectors
File Size      : 44.8k
Bit Rate       : 513k
Sample Encoding: 16-bit Signed Integer PCM


Input File     : 'unpacked/sample-05-4.wav'
Channels       : 1
Sample Rate    : 32000
Precision      : 16-bit
Duration       : 00:00:00.50 = 16000 samples ~ 37.5 CDDA sectors
File Size      : 32.0k
Bit Rate       : 513k
Sample Encoding: 16-bit Signed Integer PCM


Input File     : 'unpacked/sample-05-5.wav'
Channels       : 1
Sample Rate    : 32000
Precision      : 16-bit
Duration       : 00:00:00.27 = 8530 samples ~ 19.9922 CDDA sectors
File Size      : 17.1k
Bit Rate       : 513k
Sample Encoding: 16-bit Signed Integer PCM


Input File     : 'unpacked/sample-06-1.wav'
Channels       : 1
Sample Rate    : 32000
Precision      : 16-bit
Duration       : 00:00:00.49 = 15776 samples ~ 36.975 CDDA sectors
File Size      : 31.6k
Bit Rate       : 513k
Sample Encoding: 16-bit Signed Integer PCM


Input File     : 'unpacked/sample-06-2.wav'
Channels       : 1
Sample Rate    : 32000
Precision      : 16-bit
Duration       : 00:00:00.74 = 23544 samples ~ 55.1812 CDDA sectors
File Size      : 47.1k
Bit Rate       : 512k
Sample Encoding: 16-bit Signed Integer PCM


Input File     : 'unpacked/sample-06-3.wav'
Channels       : 1
Sample Rate    : 32000
Precision      : 16-bit
Duration       : 00:00:00.36 = 11618 samples ~ 27.2297 CDDA sectors
File Size      : 23.3k
Bit Rate       : 513k
Sample Encoding: 16-bit Signed Integer PCM


Input File     : 'unpacked/sample-06-4.wav'
Channels       : 1
Sample Rate    : 32000
Precision      : 16-bit
Duration       : 00:00:00.44 = 14074 samples ~ 32.9859 CDDA sectors
File Size      : 28.2k
Bit Rate       : 513k
Sample Encoding: 16-bit Signed Integer PCM


Input File     : 'unpacked/sample-06-5.wav'
Channels       : 1
Sample Rate    : 32000
Precision      : 16-bit
Duration       : 00:00:00.56 = 18020 samples ~ 42.2344 CDDA sectors
File Size      : 36.1k
Bit Rate       : 513k
Sample Encoding: 16-bit Signed Integer PCM


Input File     : 'unpacked/sample-07-1.wav'
Channels       : 1
Sample Rate    : 32000
Precision      : 16-bit
Duration       : 00:00:00.10 = 3200 samples ~ 7.5 CDDA sectors
File Size      : 6.44k
Bit Rate       : 516k
Sample Encoding: 16-bit Signed Integer PCM


Input File     : 'unpacked/sample-07-2.wav'
Channels       : 1
Sample Rate    : 32000
Precision      : 16-bit
Duration       : 00:00:00.20 = 6400 samples ~ 15 CDDA sectors
File Size      : 12.8k
Bit Rate       : 514k
Sample Encoding: 16-bit Signed Integer PCM


Input File     : 'unpacked/sample-07-3.wav'
Channels       : 1
Sample Rate    : 32000
Precision      : 16-bit
Duration       : 00:00:00.09 = 2919 samples ~ 6.84141 CDDA sectors
File Size      : 5.88k
Bit Rate       : 516k
Sample Encoding: 16-bit Signed Integer PCM


Input File     : 'unpacked/sample-07-4.wav'
Channels       : 1
Sample Rate    : 32000
Precision      : 16-bit
Duration       : 00:00:00.20 = 6267 samples ~ 14.6883 CDDA sectors
File Size      : 12.6k
Bit Rate       : 514k
Sample Encoding: 16-bit Signed Integer PCM


Input File     : 'unpacked/sample-08-1.wav'
Channels       : 1
Sample Rate    : 32000
Precision      : 16-bit
Duration       : 00:00:00.10 = 3236 samples ~ 7.58438 CDDA sectors
File Size      : 6.52k
Bit Rate       : 515k
Sample Encoding: 16-bit Signed Integer PCM


Input File     : 'unpacked/sample-08-2.wav'
Channels       : 1
Sample Rate    : 32000
Precision      : 16-bit
Duration       : 00:00:00.20 = 6400 samples ~ 15 CDDA sectors
File Size      : 12.8k
Bit Rate       : 514k
Sample Encoding: 16-bit Signed Integer PCM


Input File     : 'unpacked/sample-08-3.wav'
Channels       : 1
Sample Rate    : 32000
Precision      : 16-bit
Duration       : 00:00:00.16 = 5120 samples ~ 12 CDDA sectors
File Size      : 10.3k
Bit Rate       : 514k
Sample Encoding: 16-bit Signed Integer PCM


Input File     : 'unpacked/sample-08-4.wav'
Channels       : 1
Sample Rate    : 32000
Precision      : 16-bit
Duration       : 00:00:00.25 = 8000 samples ~ 18.75 CDDA sectors
File Size      : 16.0k
Bit Rate       : 513k
Sample Encoding: 16-bit Signed Integer PCM


Input File     : 'unpacked/sample-09-1.wav'
Channels       : 1
Sample Rate    : 32000
Precision      : 16-bit
Duration       : 00:00:00.15 = 4859 samples ~ 11.3883 CDDA sectors
File Size      : 9.76k
Bit Rate       : 514k
Sample Encoding: 16-bit Signed Integer PCM


Input File     : 'unpacked/sample-09-2.wav'
Channels       : 1
Sample Rate    : 32000
Precision      : 16-bit
Duration       : 00:00:00.40 = 12800 samples ~ 30 CDDA sectors
File Size      : 25.6k
Bit Rate       : 513k
Sample Encoding: 16-bit Signed Integer PCM


Input File     : 'unpacked/sample-09-3.wav'
Channels       : 1
Sample Rate    : 32000
Precision      : 16-bit
Duration       : 00:00:00.13 = 4160 samples ~ 9.75 CDDA sectors
File Size      : 8.36k
Bit Rate       : 515k
Sample Encoding: 16-bit Signed Integer PCM


Input File     : 'unpacked/sample-09-4.wav'
Channels       : 1
Sample Rate    : 32000
Precision      : 16-bit
Duration       : 00:00:00.13 = 4097 samples ~ 9.60234 CDDA sectors
File Size      : 8.24k
Bit Rate       : 515k
Sample Encoding: 16-bit Signed Integer PCM


Input File     : 'unpacked/sample-10-1.wav'
Channels       : 1
Sample Rate    : 32000
Precision      : 16-bit
Duration       : 00:00:00.09 = 2979 samples ~ 6.98203 CDDA sectors
File Size      : 6.00k
Bit Rate       : 516k
Sample Encoding: 16-bit Signed Integer PCM


Input File     : 'unpacked/sample-10-2.wav'
Channels       : 1
Sample Rate    : 32000
Precision      : 16-bit
Duration       : 00:00:00.05 = 1600 samples ~ 3.75 CDDA sectors
File Size      : 3.24k
Bit Rate       : 519k
Sample Encoding: 16-bit Signed Integer PCM


Input File     : 'unpacked/sample-10-3.wav'
Channels       : 1
Sample Rate    : 32000
Precision      : 16-bit
Duration       : 00:00:00.08 = 2462 samples ~ 5.77031 CDDA sectors
File Size      : 4.97k
Bit Rate       : 517k
Sample Encoding: 16-bit Signed Integer PCM


Input File     : 'unpacked/sample-10-4.wav'
Channels       : 1
Sample Rate    : 32000
Precision      : 16-bit
Duration       : 00:00:00.07 = 2147 samples ~ 5.03203 CDDA sectors
File Size      : 4.34k
Bit Rate       : 517k
Sample Encoding: 16-bit Signed Integer PCM


Input File     : 'unpacked/sample-11-1.wav'
Channels       : 1
Sample Rate    : 32000
Precision      : 16-bit
Duration       : 00:00:00.29 = 9403 samples ~ 22.0383 CDDA sectors
File Size      : 18.8k
Bit Rate       : 513k
Sample Encoding: 16-bit Signed Integer PCM


Input File     : 'unpacked/sample-11-2.wav'
Channels       : 1
Sample Rate    : 32000
Precision      : 16-bit
Duration       : 00:00:00.11 = 3679 samples ~ 8.62266 CDDA sectors
File Size      : 7.40k
Bit Rate       : 515k
Sample Encoding: 16-bit Signed Integer PCM


Input File     : 'unpacked/sample-11-3.wav'
Channels       : 1
Sample Rate    : 32000
Precision      : 16-bit
Duration       : 00:00:00.20 = 6400 samples ~ 15 CDDA sectors
File Size      : 12.8k
Bit Rate       : 514k
Sample Encoding: 16-bit Signed Integer PCM


Input File     : 'unpacked/sample-11-4.wav'
Channels       : 1
Sample Rate    : 32000
Precision      : 16-bit
Duration       : 00:00:00.27 = 8508 samples ~ 19.9406 CDDA sectors
File Size      : 17.1k
Bit Rate       : 513k
Sample Encoding: 16-bit Signed Integer PCM


Input File     : 'unpacked/sample-12-1.wav'
Channels       : 1
Sample Rate    : 32000
Precision      : 16-bit
Duration       : 00:00:00.22 = 7040 samples ~ 16.5 CDDA sectors
File Size      : 14.1k
Bit Rate       : 514k
Sample Encoding: 16-bit Signed Integer PCM


Input File     : 'unpacked/sample-12-2.wav'
Channels       : 1
Sample Rate    : 32000
Precision      : 16-bit
Duration       : 00:00:00.14 = 4362 samples ~ 10.2234 CDDA sectors
File Size      : 8.77k
Bit Rate       : 515k
Sample Encoding: 16-bit Signed Integer PCM


Input File     : 'unpacked/sample-12-3.wav'
Channels       : 1
Sample Rate    : 32000
Precision      : 16-bit
Duration       : 00:00:00.30 = 9600 samples ~ 22.5 CDDA sectors
File Size      : 19.2k
Bit Rate       : 513k
Sample Encoding: 16-bit Signed Integer PCM


Input File     : 'unpacked/sample-12-4.wav'
Channels       : 1
Sample Rate    : 32000
Precision      : 16-bit
Duration       : 00:00:00.10 = 3200 samples ~ 7.5 CDDA sectors
File Size      : 6.44k
Bit Rate       : 516k
Sample Encoding: 16-bit Signed Integer PCM

Total Duration of 54 files: 00:00:12.58
